<svg xmlns="http://www.w3.org/2000/svg" id="Ebene_1" viewBox="0 0 403.8 403.8"><circle cx="201.9" cy="201.9" r="201.9" style="fill:#f2f2f2; stroke-width:0px;"></circle><path d="m156.1,17.55c9.4-2.34,17.81,1.18,22.19,9.17l-10.58,2.64c-2.47-2.97-5.88-3.91-9.54-3-5.91,1.47-8.87,6.87-7.12,13.85s6.89,10.36,12.8,8.88c3.66-.91,6.22-3.34,7.01-7.13l10.58-2.64c-.12,9.12-5.9,16.12-15.3,18.46-11.65,2.91-21.93-3.32-24.88-15.13-2.95-11.82,3.19-22.2,14.84-25.1Z" style="fill:#0e0e0e; stroke-width:0px;"></path><path d="m189.3,9.99l9.92.17-.25,14.91c2.02-2.75,5.59-4.6,10.06-4.53,7.37.13,12.21,5.31,12.06,14.01l-.32,18.91-9.86-.17.3-17.57c.08-4.41-2.32-6.89-6.09-6.95s-6.25,2.33-6.32,6.74l-.3,17.57-9.92-.17.73-42.92Z" style="fill:#0e0e0e; stroke-width:0px;"></path><path d="m239.2,58.36c-9.21-2.38-14.24-10.27-11.67-20.21,2.57-9.94,10.68-14.43,20-12.02,9.15,2.37,14.04,10.1,11.58,19.64-.23.9-.54,1.84-.89,2.76l-21.73-5.62c-.72,4.19,1.31,6.75,4.4,7.55,2.7.7,4.56-.26,5.78-1.74l10.22,2.64c-3.1,5.73-9.88,9.01-17.68,6.99Zm-1.28-20.76l12.02,3.11c.89-3.43-1.3-6.09-4.5-6.91-3.14-.81-6.05.47-7.51,3.81Z" style="fill:#0e0e0e; stroke-width:0px;"></path><path d="m285.53,40.71c7.21,3.73,10.26,10.34,8.21,17.96l-9.38-4.85c.32-2.38-.46-4.42-2.88-5.67-3.14-1.63-6.59-.27-9.06,4.52-2.48,4.79-1.6,8.38,1.55,10.01,2.42,1.25,4.43.79,6.29-.92l9.38,4.85c-4.93,5.87-12.19,7.41-19.4,3.67-8.45-4.37-11.49-13.13-6.77-22.25,4.69-9.07,13.63-11.69,22.07-7.32Z" style="fill:#0e0e0e; stroke-width:0px;"></path><path d="m314.51,46.14l7.58,6.4-15.3,18.13,15.98-3.74,9.35,7.89-20.76,3.73-.03,21.08-9.4-7.93,1.22-16.73-8.75,10.37-7.58-6.4,27.69-32.8Z" style="fill:#0e0e0e; stroke-width:0px;"></path><path d="m327.21,122.61c-5.08-8.04-3.54-17.53,5.14-23.01,8.67-5.49,18-2.67,23.06,5.31,5.08,8.04,3.6,17.62-5.07,23.11-8.68,5.49-18.04,2.62-23.12-5.41Zm7.25-4.59c1.89,2.99,5.86,4.39,10.47,1.47,4.66-2.95,5.08-7.05,3.22-10-1.92-3.04-5.75-4.32-10.41-1.38-4.61,2.91-5.2,6.86-3.28,9.9Z" style="fill:#0e0e0e; stroke-width:0px;"></path><path d="m348.04,169.78l-3.15-9.4,4.18-1.4c-3.27-.98-6.24-3.66-7.62-7.78-2.38-7.09.91-13.52,9.11-16.27l17.93-6.01,3.13,9.35-16.66,5.59c-4.18,1.4-5.7,4.54-4.52,8.06,1.22,3.63,4.3,5.17,8.48,3.76l16.66-5.58,3.15,9.4-30.69,10.29Z" style="fill:#0e0e0e; stroke-width:0px;"></path><path d="m372.58,173.62l-.49-3.91,8.17-1.02.49,3.91,7.83-.98,1.23,9.84-7.83.98.81,6.44-8.17,1.02-.81-6.44-12.89,1.62c-1.9.24-2.6,1.15-2.33,3.33l.44,3.51-8.34,1.05-.63-5.01c-.84-6.67,1.4-11.69,9.74-12.74l12.77-1.6Z" style="fill:#0e0e0e; stroke-width:0px;"></path><path d="m360.45,255.2c4.13.92,6.93-.96,7.75-4.64.82-3.68-.92-6.56-5.05-7.48l-17.16-3.81,2.14-9.63,17.16,3.81c4.13.92,6.93-.96,7.75-4.64.82-3.68-.92-6.56-5.05-7.48l-17.16-3.81,2.15-9.68,31.6,7.02-2.15,9.68-3.96-.88c2.13,2.44,3.17,6.05,2.25,10.19-1.06,4.76-4.01,8.14-8.28,9.45,2.88,2.84,4.54,7.37,3.52,11.95-1.74,7.81-7.84,11.75-16.33,9.86l-18.46-4.1,2.14-9.63,17.16,3.81Z" style="fill:#0e0e0e; stroke-width:0px;"></path><path d="m354.42,299.86l-5.42,9.26-30.93-41.64,5.39-9.21,10.46,14.73,33.63,4.44-5.6,9.56-21.25-3.77,13.71,16.64Z" style="fill:#0e0e0e; stroke-width:0px;"></path><path d="m327.98,320.29l2.55-2.54,5.81,5.84-2.55,2.54.65.66c5.97,6,5.22,12.64-2.14,19.23l-5.93-5.96c2.88-2.54,3-4.3.59-6.72l-.2-.21-3.78,3.76-5.81-5.84,3.78-3.76-17.02-17.1,7.03-7,17.02,17.1Z" style="fill:#0e0e0e; stroke-width:0px;"></path><path d="m289.69,321.97l7.96-5.92,19.31,25.97-7.96,5.92-3.22-4.33c.23,4.1-1.23,8.07-4.72,10.66l-6.26-8.42,2.19-1.63c3.77-2.8,4.99-5.73,1.67-10.2l-8.96-12.05Z" style="fill:#0e0e0e; stroke-width:0px;"></path><path d="m266.02,335.62c8.57-4.13,17.51-1.35,21.96,7.9,4.45,9.25,1.16,17.92-7.52,22.09-8.52,4.1-17.25,1.35-21.52-7.53-.4-.84-.78-1.75-1.1-2.69l20.23-9.74c-2.15-3.66-5.36-4.31-8.23-2.92-2.51,1.21-3.32,3.14-3.29,5.06l-9.51,4.58c-1.33-6.38,1.73-13.26,8.99-16.75Zm14.38,15.03l-11.18,5.38c1.53,3.19,4.92,3.81,7.9,2.38,2.93-1.41,4.32-4.27,3.28-7.76Z" style="fill:#0e0e0e; stroke-width:0px;"></path><path d="m234.54,346.56c9.28-2.09,17.36,2.63,19.62,12.64,2.26,10.01-2.9,17.72-12.29,19.84-9.22,2.08-17.11-2.56-19.28-12.18-.2-.91-.36-1.88-.47-2.87l21.9-4.94c-1.27-4.05-4.25-5.4-7.36-4.7-2.72.61-3.94,2.31-4.35,4.19l-10.3,2.32c.14-6.51,4.67-12.53,12.53-14.3Zm10.63,17.88l-12.11,2.73c.78,3.45,3.94,4.82,7.17,4.09,3.17-.71,5.17-3.19,4.94-6.82Z" style="fill:#0e0e0e; stroke-width:0px;"></path><path d="m187.39,382.89c-8.1-.63-13.48-5.52-14.56-13.35l10.53.82c.63,2.32,2.14,3.89,4.86,4.1,3.53.27,6.17-2.31,6.59-7.69.42-5.38-1.8-8.34-5.32-8.62-2.72-.21-4.38,1-5.43,3.3l-10.53-.82c2.26-7.33,8.34-11.57,16.44-10.94,9.48.74,15.7,7.62,14.9,17.85-.79,10.18-8,16.08-17.48,15.34Z" style="fill:#0e0e0e; stroke-width:0px;"></path><path d="m157.43,343.39c9.07,2.86,14.01,11.1,10.93,20.89-3.08,9.79-12.03,13.66-21.04,10.82-9.07-2.86-14.12-11.14-11.04-20.93,3.08-9.79,12.08-13.64,21.15-10.79Zm-2.58,8.19c-3.37-1.06-7.31.43-8.95,5.63-1.66,5.25.68,8.66,3.99,9.71,3.43,1.08,7.18-.41,8.84-5.67,1.64-5.2-.45-8.59-3.88-9.68Z" style="fill:#0e0e0e; stroke-width:0px;"></path><path d="m110.8,359.03c-3.67-2.23-5.81-5.85-5.96-9.4l-7.81,12.83-8.47-5.16,22.32-36.65,8.47,5.16-2.41,3.96c3.07-1.59,7.11-1.64,11.17.83,6.79,4.13,8.81,12.97,3.5,21.69s-14.03,10.88-20.81,6.74Zm2.02-8.89c3.17,1.93,7.49,1.3,10.18-3.1,2.68-4.41,1.32-8.63-1.85-10.56-3.22-1.96-7.52-1.25-10.21,3.15-2.69,4.41-1.34,8.55,1.88,10.52Z" style="fill:#0e0e0e; stroke-width:0px;"></path><path d="m97.23,306.92c6.74,6.71,7.09,16.06-.15,23.33-7.24,7.28-16.51,7.05-23.33.26-6.7-6.67-7.01-15.81-.06-22.8.65-.66,1.39-1.32,2.17-1.93l15.91,15.83c2.74-3.25,2.28-6.48.02-8.73-1.97-1.96-4.06-2.08-5.87-1.42l-7.48-7.45c5.57-3.38,13.07-2.78,18.79,2.91Zm-9.39,18.56l-8.8-8.75c-2.5,2.51-1.95,5.91.39,8.24,2.3,2.29,5.46,2.65,8.41.51Z" style="fill:#0e0e0e; stroke-width:0px;"></path><path d="m71.15,271.89c4.12,7.6,2.64,14.99-2.64,18.38l-4.67-8.62c1.88-1.28,2.24-3.78.94-6.18-1.22-2.24-2.87-2.86-4.15-2.17-4.59,2.49,7.12,16.19-3.33,21.85-4.84,2.62-11.06.65-15.09-6.8-3.98-7.34-2.11-13.63,3.2-17.23l4.36,8.06c-1.8,1.3-2.27,3.47-.95,5.92,1.1,2.04,2.53,2.72,3.91,1.97,4.54-2.46-7.02-16.12,3.51-22.02,4.95-2.68,11.04-.31,14.91,6.83Z" style="fill:#0e0e0e; stroke-width:0px;"></path><path d="m39.89,240.15c-4.25,1.17-5.95,4.17-4.94,7.81,1,3.63,4,5.33,8.25,4.16l16.94-4.68,2.64,9.56-31.2,8.62-2.64-9.56,4.14-1.14c-3.15-1.17-5.93-4.02-7.08-8.21-1.99-7.21,1.6-13.38,9.98-15.7l18.23-5.04,2.63,9.5-16.94,4.68Z" style="fill:#0e0e0e; stroke-width:0px;"></path><path d="m13.45,225.36c-3,.28-5.59-1.87-5.91-5.4-.32-3.47,1.83-6.05,4.83-6.33,2.95-.27,5.53,1.88,5.85,5.34.32,3.52-1.82,6.11-4.77,6.38Zm8.58-1.72l-.91-9.88,32.23-2.97.91,9.88-32.23,2.97Z" style="fill:#0e0e0e; stroke-width:0px;"></path><path d="m21.3,182.67c.67-7.92,7.56-13.68,17.73-12.82s16.11,7.71,15.45,15.62c-.4,4.74-2.94,7.96-5.81,9.52l19.88,1.68-.83,9.88-47.63-4.02.83-9.88,4.57.39c-2.68-2.03-4.59-5.63-4.19-10.37Zm8.36,3.68c-.31,3.7,2.24,7.29,7.38,7.73,5.14.43,8.26-2.68,8.57-6.38.32-3.76-2.29-7.35-7.43-7.79s-8.2,2.68-8.52,6.44Z" style="fill:#0e0e0e; stroke-width:0px;"></path><path d="m31.56,138.83c2.6-7.51,10.7-11.39,20.34-8.05,9.64,3.34,13.71,11.44,11.11,18.95-1.56,4.49-4.82,6.98-7.98,7.79l18.85,6.54-3.25,9.37-45.15-15.65,3.25-9.37,4.33,1.5c-2.1-2.63-3.06-6.58-1.5-11.08Zm7.2,5.63c-1.22,3.51.37,7.62,5.24,9.31,4.88,1.69,8.66-.56,9.88-4.06,1.23-3.56-.4-7.69-5.28-9.38s-8.61.58-9.84,4.14Z" style="fill:#0e0e0e; stroke-width:0px;"></path><path d="m77.14,121.74c-5.14,8-14.21,10.31-22.85,4.76-8.64-5.55-10.37-14.66-5.16-22.76,5.11-7.95,13.99-10.18,22.28-4.85.78.5,1.58,1.08,2.35,1.71l-12.14,18.88c3.75,2,6.82.87,8.55-1.82,1.5-2.34,1.18-4.41.16-6.04l5.71-8.88c4.47,4.74,5.47,12.2,1.11,18.98Zm-20.12-5.28l6.71-10.44c-2.98-1.91-6.19-.67-7.98,2.11-1.76,2.73-1.45,5.9,1.27,8.33Z" style="fill:#0e0e0e; stroke-width:0px;"></path><path d="m71.74,87.95l-2.71,2.87-5.98-5.66,2.71-2.87-5.73-5.42,6.82-7.21,5.73,5.42,4.46-4.72,5.98,5.66-4.46,4.72,9.44,8.93c1.39,1.31,2.54,1.28,4.05-.32l2.43-2.57,6.11,5.78-3.47,3.67c-4.62,4.89-9.92,6.35-16.03.57l-9.36-8.85Z" style="fill:#0e0e0e; stroke-width:0px;"></path><path d="m114.17,82.36c-6.94,5.15-14.47,4.73-18.57-.03l7.88-5.84c1.53,1.68,4.06,1.68,6.25.06,2.05-1.52,2.43-3.25,1.57-4.41-3.11-4.19-15.03,9.33-22.11-.22-3.28-4.43-2.2-10.86,4.6-15.9,6.71-4.97,13.2-4.01,17.51.74l-7.36,5.46c-1.55-1.6-3.76-1.76-6-.1-1.86,1.38-2.34,2.89-1.4,4.15,3.07,4.15,14.97-9.22,22.29.37,3.35,4.52,1.86,10.89-4.66,15.73Z" style="fill:#0e0e0e; stroke-width:0px;"></path><path d="m215.35,178.46c-14.64,0-29.14.03-43.64-.01-6.26-.02-10.07-3.13-10.78-8.62-.76-5.9,3.22-11.11,9.18-11.15,23.67-.15,47.34-.15,71,0,5.88.04,9.23,4.31,9.26,11.18.07,13.56.02,27.12.02,40.68,0,8.27.01,16.54,0,24.8-.02,8.31-3.37,12.54-9.92,12.59-6.65.05-10.12-4.15-10.13-12.38-.02-13.87,0-27.73,0-41.75-2.38.26-3.22,2.06-4.41,3.25-18.37,18.36-36.68,36.77-55.01,55.17-.93.94-1.83,1.92-2.82,2.79-4.41,3.84-10.58,3.82-14.35,0-3.78-3.84-3.9-10.08.21-14.32,7.94-8.2,16.16-16.12,24.18-24.25,12.31-12.48,24.55-25.03,37.24-37.98Z" style="fill:#0e0e0e; stroke-width:0px;"></path></svg>