<svg xmlns="http://www.w3.org/2000/svg" viewBox="0 0 300 300">
    <path
        d="m269.29,154.32c-.02-3.02-2.67-5.43-6.73-6.14-3.56-.62-34.22-1.55-50.16-1.44-17.97.14-28.43,2.63-38.05,5.44-6.86,2-12.79,3.74-20.27,4.16-7.48-.42-13.41-2.15-20.27-4.16-9.62-2.81-20.08-5.31-38.05-5.44-15.94-.11-46.59.81-50.16,1.44-4.06.71-6.71,3.12-6.73,6.14l-.09,10.95c0,.78.53,1.46,1.3,1.65,2.67.65,5.69,1.39,8.24,21.02,2.87,22.12,16.42,33.42,40.27,33.6,21.22,0,46.05-7.75,54.15-28.66,5.81-14.98,8.54-18.62,11.33-18.75,2.78.13,5.52,3.77,11.33,18.75,8.1,20.91,32.93,28.66,54.15,28.66,23.85-.18,37.4-11.49,40.27-33.6,2.55-19.63,5.57-20.37,8.24-21.02.77-.19,1.31-.87,1.3-1.65l-.09-10.95Zm-136.65,38.76c-8.42,13.55-29.97,20.46-40.48,20.36-12.96-.11-22.99-3.55-28.25-10-6.2-7.61-7.19-34.33-1.52-41.33,2.29-2.83,16.82-8.18,34.96-7.53,20.6.74,33.55,4.13,38.45,11.81,4.98,7.81,1.73,18.78-3.18,26.67Zm111.6,10.36c-5.25,6.45-15.28,9.88-28.25,10-10.5.09-32.06-6.82-40.48-20.36-4.9-7.89-8.16-18.87-3.18-26.67,4.9-7.68,17.85-11.07,38.45-11.81,18.15-.65,32.67,4.7,34.96,7.53,5.67,6.99,4.68,33.72-1.52,41.33Z"
        style="fill:#0005; stroke-width:0px;"></path>
    <path
        d="m196.1,100.5c-15.69-3.26-49.13-23.16-46.85-31.01,8.47,13.47,28.46,18.69,30.98,18.53l2.66-.45c13.75-.64,28.31,1,34.99,7.68,6.07,6.07,15.43,27,15.08,47.7,5.1.17,9.55.36,12.36.54,4.08-14.28,7.15-30.28,3.67-41.14,0,0-2.09,5.57-4.52,6.72.28-6.17,1.68-26.65,6.17-27.22-4.32-4.12-8.98-3.09-10.38,0-1.4-3.65-1.4-14.87,3.65-16.55-5.05-5.05-11.5-4.21-13.47-1.96-4.21-8.42-13.75-29.74-33.39-33.67,3.85,6.33,6.17,13.75,6.17,17.68-4.28-11.17-18.43-23.79-31.83-20.73-17.31,3.95-40.09-1.25-41.68-9.01-2.81,3.37-1.41,11.83,3.37,14.87-9.82.84-47.02-15.11-49.33-32.48-9.76,13.82-.91,44.16,10.33,45.1-3.73,3.25-14.29-1.71-16.83-7.86-5.83,4.57-5.96,18.31-.84,24.97-7.09-2.14-13.86-13.21-11.05-17.98-12.39,7.31-18.1,36.77-9.15,53.33,5.59,10.34,5.17,31.97,7.74,45.85,1.93-.11,4.43-.22,7.25-.33-2.3-27.14,5.81-54.72,24.75-57.57,17.82-2.67,36.55,2.61,51.58,4.5-4.16-3.51-6.79-7.63-5.57-11.83,6.39,10.75,27.37,22.57,54.14,22.31Z"
        style="fill:#000; stroke-width:0px;"></path>
</svg>