<?xml version="1.0" encoding="UTF-8"?>
<!-- Generator: Adobe Illustrator 26.3.0, SVG Export Plug-In . SVG Version: 6.00 Build 0)  -->
<svg xmlns="http://www.w3.org/2000/svg" xmlns:xlink="http://www.w3.org/1999/xlink" version="1.1" id="Ebene_1" x="0px" y="0px" viewBox="0 0 188 61" style="enable-background:new 0 0 188 61;" xml:space="preserve">
<style type="text/css">
	.st0{fill:none;stroke:#FFFFFF;stroke-width:1.5;stroke-linecap:round;stroke-linejoin:round;stroke-miterlimit:10;}
	.st1{fill:#FFFFFF;}
</style>
<g>
	<path class="st0" d="M17.2,10.6c2.4,25.6,24.5,52.2,51.9,40 M11.8,16.1C14.6,12.7,14,8.5,16,4.8c1.9,2.6,6,7.6,9.2,8.8"></path>
</g>
<g>
	<path class="st1" d="M100.7,51.6c0,0.1,0.1,0.3,0.1,0.4c0,0.1,0.1,0.3,0.1,0.4c0,0.1,0.1,0.3,0.1,0.4c0,0.2-0.1,0.3-0.2,0.4   c-0.1,0.1-0.3,0.2-0.4,0.3c-0.2,0.1-0.3,0.1-0.5,0.1c-0.1,0-0.2,0-0.3,0c-0.1,0-0.4-0.4-0.8-1.3s-0.8-2.1-1.2-3.7s-0.9-3.5-1.3-5.7   c-0.5-2.2-0.8-4.6-1.1-7.2c0,0.6-0.1,1.2-0.3,1.9c-0.1,0.7-0.3,1.4-0.6,2.1c-0.3,0.6-0.6,1.2-1,1.6c-0.4,0.4-1,0.7-1.6,0.7   c-0.5,0-1-0.2-1.5-0.7c-0.6-0.5-1.1-1-1.7-1.7c-0.5-0.7-1-1.3-1.5-2c-0.4-0.7-0.8-1.2-1-1.7c0.1,1.1,0.3,2.3,0.5,3.8   c0.2,1.5,0.6,3.1,1.1,4.7c0,0.2,0.1,0.3,0.2,0.4c0.1,0.1,0.1,0.2,0.2,0.3c0.1,0.1,0.1,0.2,0.1,0.3c0,0.1,0.1,0.3,0.1,0.5   c0,0.3-0.1,0.5-0.4,0.7c-0.2,0.1-0.5,0.2-0.7,0.2c-0.1,0-0.3-0.2-0.5-0.6c-0.2-0.4-0.4-0.9-0.6-1.5c-0.2-0.6-0.4-1.3-0.6-2   c-0.2-0.7-0.4-1.5-0.6-2.2s-0.3-1.4-0.5-2c-0.1-0.6-0.2-1.1-0.2-1.5c0-0.6,0-1.1,0.1-1.3s0.1-0.4,0.3-0.5V33c0-0.3,0.1-0.6,0.3-0.8   c0.2-0.2,0.4-0.3,0.7-0.3c0.2,0,0.5,0.2,0.8,0.6c0.3,0.4,0.7,0.9,1,1.5s0.8,1.3,1.2,2c0.4,0.7,0.8,1.4,1.2,2   c0.4,0.6,0.8,1.1,1.2,1.5c0.4,0.4,0.7,0.6,1.1,0.6c0.3,0,0.6-0.3,0.9-0.9s0.6-1.4,0.8-2.3c0.3-1,0.5-2.1,0.7-3.3   c0.2-1.2,0.3-2.5,0.5-3.7c0-0.1,0-0.3,0-0.5c0-0.2,0-0.4,0-0.6c0-0.3,0.1-0.6,0.2-0.9c0.1-0.3,0.4-0.5,0.8-0.5   c0.2,0,0.4,0.1,0.5,0.2c0.1,0.1,0.2,0.3,0.3,0.5c0,0.2,0.1,0.4,0.1,0.5c0,0.2,0,0.3,0,0.4c0,0.2,0,0.5-0.1,1c0,0.4-0.1,1.1-0.1,2   c0,0.8,0.1,1.7,0.2,2.8c0.1,1,0.3,2.1,0.5,3.3s0.4,2.4,0.7,3.6c0.3,1.2,0.6,2.4,0.9,3.6c0.3,1.2,0.6,2.3,1,3.3   C100.1,49.8,100.4,50.8,100.7,51.6z"></path>
	<path class="st1" d="M109.5,32.8c-0.3,1.7-0.6,3.3-0.9,4.8c-0.1,0.6-0.2,1.3-0.4,2c-0.1,0.7-0.2,1.4-0.3,2.1   c-0.1,0.7-0.2,1.3-0.3,1.9c-0.1,0.6-0.2,1.2-0.2,1.7c-0.1,0.8-0.2,1.6-0.2,2.6c0,1-0.1,1.9-0.1,2.8c0,1-0.1,2.1-0.1,3.1   c0,0.2,0,0.5-0.1,0.7c0,0.3-0.1,0.5-0.1,0.8c0,0.2-0.1,0.4-0.2,0.6c-0.1,0.2-0.3,0.3-0.5,0.3c-0.2,0-0.3-0.2-0.5-0.5   c-0.1-0.3-0.2-0.6-0.3-1c-0.1-0.4-0.1-0.8-0.1-1.2c0-0.4,0-0.7,0-0.8c0-0.2,0-0.4,0-0.7c0-0.3,0-0.7,0.1-1.2s0.1-1.2,0.2-2.1   c0.1-0.9,0.2-2,0.3-3.4c0,0-0.2-0.1-0.5-0.4s-0.7-0.5-1.2-0.8c-0.5-0.3-0.9-0.7-1.4-1.1s-0.9-0.8-1.2-1.1c0,0-0.1-0.2-0.2-0.3   c-0.1-0.2-0.1-0.4-0.1-0.6c0-0.1,0.1-0.2,0.2-0.4s0.3-0.2,0.4-0.2c0.1,0,0.2,0,0.3,0.1c0.6,0.5,1.2,1,1.9,1.6s1.4,1.1,2.1,1.6   c0-0.4,0.1-1.1,0.3-2c0.2-0.9,0.3-1.8,0.5-2.9c0.2-1,0.3-2,0.5-3c0.2-1,0.3-1.7,0.3-2.3c0-0.1,0-0.3,0.1-0.5c0-0.2,0.1-0.4,0.2-0.6   c0.1-0.2,0.2-0.4,0.3-0.6c0.1-0.2,0.3-0.2,0.4-0.2c0.1,0,0.2,0.1,0.5,0.2C109.4,32,109.5,32.3,109.5,32.8z"></path>
	<path class="st1" d="M138.5,43c0.1,0.1,0.2,0.2,0.2,0.2c0,0-0.1,0.2-0.2,0.4c-0.1,0.2-0.3,0.5-0.5,0.8c-0.2,0.3-0.5,0.5-0.7,0.7   s-0.5,0.3-0.7,0.3c-0.5,0-0.9-0.1-1.2-0.3c-0.3-0.2-0.6-0.5-0.8-0.8c-0.2-0.3-0.4-0.7-0.5-1c-0.1-0.4-0.2-0.7-0.3-1.1   c0-0.2-0.1-0.3-0.1-0.3c-0.1,0-0.2,0.3-0.4,0.8c-0.2,0.5-0.5,1.1-0.7,1.7s-0.5,1.2-0.7,1.7c-0.2,0.5-0.4,0.8-0.5,0.8   c-0.4,0-0.8-0.2-1.1-0.6c-0.3-0.4-0.5-0.8-0.7-1.3c-0.2-0.5-0.3-1-0.4-1.5c-0.1-0.5-0.2-0.9-0.2-1.2c-0.1-0.6-0.2-1.7-0.5-3.2   c-0.2-1.5-0.4-3.3-0.6-5.5c0-0.5-0.1-0.9-0.2-1.2s-0.1-0.8-0.2-1.2c-0.1-0.5-0.1-1-0.2-1.5c0-0.6-0.1-1.3-0.1-2.1c0,0,0-0.2,0-0.5   c0-0.3,0.1-0.6,0.1-0.9c0-0.3,0.1-0.6,0.2-0.8c0.1-0.2,0.2-0.4,0.4-0.4c0.2,0,0.3,0.1,0.5,0.3c0.1,0.2,0.3,0.4,0.4,0.7   c0.1,0.3,0.2,0.5,0.2,0.8c0,0.2,0.1,0.4,0.1,0.5c0,0.4,0,0.7-0.1,1c0,0.3-0.1,0.6-0.1,0.9c0,0.4,0,0.8,0.1,1.4   c0.1,0.6,0.1,1.1,0.2,1.7c0.1,0.6,0.2,1.1,0.3,1.7c0.1,0.5,0.1,1,0.2,1.3c0,0,0,0.2,0.1,0.5c0,0.3,0.1,0.7,0.2,1.2   c0.1,0.5,0.1,1,0.2,1.5c0.1,0.5,0.1,1.1,0.2,1.6c0.1,0.5,0.1,1,0.2,1.4c0.1,0.4,0.1,0.7,0.1,0.8c0,0.1,0,0.2,0.1,0.3   s0.1,0.3,0.1,0.5c0,0.2,0.1,0.3,0.1,0.5c0,0.1,0.1,0.3,0.2,0.3c0.1-0.3,0.3-0.7,0.6-1.3c0.2-0.6,0.5-1.2,0.7-1.8   c0.3-0.6,0.5-1.2,0.7-1.6c0.2-0.5,0.4-0.7,0.6-0.7c0.2,0,0.3,0,0.5,0.1c0.1,0.1,0.3,0.1,0.5,0.2c0.2,0.1,0.4,0.2,0.4,0.4   s0,0.3,0.1,0.6c0,0.3,0.1,0.7,0.2,1.1c0.1,0.5,0.2,0.9,0.4,1.4c0.1,0.4,0.3,0.8,0.5,1.1c0.2,0.3,0.4,0.5,0.6,0.5   c0.1,0,0.2-0.1,0.4-0.4s0.4-0.4,0.7-0.4c0,0,0.1,0,0.3,0.1C138.3,42.8,138.4,42.9,138.5,43z"></path>
	<path class="st1" d="M147.3,41.8c0,0.5-0.1,1-0.2,1.5s-0.3,0.9-0.6,1.3s-0.5,0.6-0.8,0.8c-0.3,0.2-0.7,0.3-1.1,0.3   c-0.7,0-1.2-0.2-1.6-0.6s-0.7-0.8-0.9-1.3s-0.3-1-0.4-1.5c-0.1-0.5-0.1-0.9-0.1-1.2c0-0.4,0.1-0.9,0.2-1.5s0.3-1,0.5-1.5   c0.2-0.5,0.5-0.8,0.8-1.2s0.6-0.5,0.9-0.5c0.1,0,0.2,0,0.3,0.1c0.2,0,0.3,0.1,0.5,0.2c0.2,0.1,0.3,0.2,0.5,0.4s0.2,0.3,0.3,0.5   c0.3,0,0.5,0.1,0.8,0.3c0.3,0.2,0.4,0.3,0.4,0.4c0.2,0.6,0.3,1.2,0.4,1.9C147.3,40.9,147.3,41.4,147.3,41.8z M145.7,41.2   c0-0.4,0-0.7-0.1-1.1c-0.1-0.4-0.2-0.8-0.4-1.2c0,0-0.1,0-0.2,0c-0.1,0-0.2,0-0.2,0c-0.1,0-0.1,0-0.2,0c-0.3,0-0.5,0.1-0.7,0.2   c-0.2,0.2-0.3,0.4-0.4,0.6s-0.1,0.5-0.2,0.8c0,0.3,0,0.6,0,0.8c0,0.3,0,0.6,0,0.9c0,0.3,0.1,0.6,0.2,0.9s0.2,0.5,0.3,0.7   c0.1,0.2,0.3,0.3,0.6,0.3c0.2,0,0.4-0.1,0.6-0.4c0.2-0.3,0.3-0.5,0.4-0.9c0.1-0.3,0.2-0.7,0.2-1C145.7,41.6,145.7,41.3,145.7,41.2z   "></path>
	<path class="st1" d="M159.5,42.4c0,1.1-0.1,2-0.4,2.8c-0.3,0.8-0.6,1.5-0.9,2s-0.7,0.9-1.1,1.2c-0.4,0.3-0.7,0.4-0.9,0.4   c-0.3,0-0.7-0.2-1-0.5s-0.5-0.6-0.5-0.8c0-0.4,0.2-0.6,0.5-0.6c0.1,0,0.2,0,0.4,0.1s0.2,0.1,0.3,0.2c0.4-0.3,0.8-0.9,1.2-1.7   s0.6-1.9,0.6-3.3c0-0.6-0.1-1.1-0.2-1.5s-0.3-0.8-0.4-1.2c-0.2-0.3-0.3-0.6-0.5-0.7s-0.3-0.3-0.4-0.3c-0.2,0-0.5,0.2-0.7,0.7   c-0.2,0.5-0.4,1-0.6,1.6c-0.2,0.6-0.3,1.2-0.4,1.8c-0.1,0.6-0.2,1-0.2,1.2c0,0.1,0,0.3,0.1,0.4c0,0.1,0,0.2,0.1,0.4   c0,0.1,0,0.2,0,0.4c0,0.5-0.2,0.9-0.5,1.2c-0.3,0.4-0.6,0.5-0.9,0.5c-0.1,0-0.3-0.1-0.3-0.3c-0.1-0.2-0.2-0.5-0.2-0.8   c0-0.3-0.1-0.6-0.1-1s-0.1-0.6-0.1-0.9c-0.2-0.4-0.4-1.1-0.8-2.1c-0.3-0.9-0.6-1.9-1-3s-0.7-2.1-1-3.1s-0.5-1.8-0.7-2.4   c-0.3-1.3-0.6-2.4-0.8-3.4c-0.2-1-0.3-1.8-0.4-2.6c-0.1-0.7-0.2-1.4-0.2-1.9c0-0.5,0-1,0-1.3c0-0.2,0.1-0.4,0.3-0.5   c0.2-0.1,0.3-0.2,0.5-0.2c0.2,0,0.4,0,0.5,0.1c0.1,0.1,0.2,0.3,0.2,0.5c0,0.3,0.1,0.6,0.1,1.2s0.1,1.2,0.2,2c0,0.4,0.1,1,0.3,1.7   c0.1,0.7,0.3,1.5,0.5,2.4s0.5,1.8,0.7,2.8c0.3,1,0.5,1.9,0.8,2.8c0.3,0.9,0.6,1.7,0.8,2.4c0.3,0.7,0.5,1.3,0.8,1.8   c0.2-0.9,0.5-1.6,0.8-2.3c0.3-0.6,0.6-1.1,1-1.6c0.4-0.5,0.9-0.7,1.4-0.7c0.2,0,0.5,0.1,0.9,0.3c0.4,0.2,0.7,0.5,1.1,1   c0.3,0.5,0.6,1.1,0.9,1.8C159.4,40.5,159.5,41.4,159.5,42.4z"></path>
	<path class="st1" d="M171.4,42.4c0,1.1-0.1,2-0.4,2.8c-0.3,0.8-0.6,1.5-0.9,2s-0.7,0.9-1.1,1.2c-0.4,0.3-0.7,0.4-0.9,0.4   c-0.3,0-0.7-0.2-1-0.5s-0.5-0.6-0.5-0.8c0-0.4,0.2-0.6,0.5-0.6c0.1,0,0.2,0,0.4,0.1s0.2,0.1,0.3,0.2c0.4-0.3,0.8-0.9,1.2-1.7   s0.6-1.9,0.6-3.3c0-0.6-0.1-1.1-0.2-1.5s-0.3-0.8-0.4-1.2c-0.2-0.3-0.3-0.6-0.5-0.7s-0.3-0.3-0.4-0.3c-0.2,0-0.5,0.2-0.7,0.7   c-0.2,0.5-0.4,1-0.6,1.6c-0.2,0.6-0.3,1.2-0.4,1.8c-0.1,0.6-0.2,1-0.2,1.2c0,0.1,0,0.3,0.1,0.4c0,0.1,0,0.2,0.1,0.4   c0,0.1,0,0.2,0,0.4c0,0.5-0.2,0.9-0.5,1.2c-0.3,0.4-0.6,0.5-0.9,0.5c-0.1,0-0.3-0.1-0.3-0.3c-0.1-0.2-0.2-0.5-0.2-0.8   c0-0.3-0.1-0.6-0.1-1s-0.1-0.6-0.1-0.9c-0.2-0.4-0.4-1.1-0.8-2.1c-0.3-0.9-0.6-1.9-1-3s-0.7-2.1-1-3.1s-0.5-1.8-0.7-2.4   c-0.3-1.3-0.6-2.4-0.8-3.4c-0.2-1-0.3-1.8-0.4-2.6c-0.1-0.7-0.2-1.4-0.2-1.9c0-0.5,0-1,0-1.3c0-0.2,0.1-0.4,0.3-0.5   c0.2-0.1,0.3-0.2,0.5-0.2c0.2,0,0.4,0,0.5,0.1c0.1,0.1,0.2,0.3,0.2,0.5c0,0.3,0.1,0.6,0.1,1.2s0.1,1.2,0.2,2c0,0.4,0.1,1,0.3,1.7   c0.1,0.7,0.3,1.5,0.5,2.4s0.5,1.8,0.7,2.8c0.3,1,0.5,1.9,0.8,2.8c0.3,0.9,0.6,1.7,0.8,2.4c0.3,0.7,0.5,1.3,0.8,1.8   c0.2-0.9,0.5-1.6,0.8-2.3c0.3-0.6,0.6-1.1,1-1.6c0.4-0.5,0.9-0.7,1.4-0.7c0.2,0,0.5,0.1,0.9,0.3c0.4,0.2,0.7,0.5,1.1,1   c0.3,0.5,0.6,1.1,0.9,1.8C171.3,40.5,171.4,41.4,171.4,42.4z"></path>
	<path class="st1" d="M182.3,32.8c-0.3,1.7-0.6,3.3-0.9,4.8c-0.1,0.6-0.2,1.3-0.4,2c-0.1,0.7-0.2,1.4-0.3,2.1   c-0.1,0.7-0.2,1.3-0.3,1.9c-0.1,0.6-0.2,1.2-0.2,1.7c-0.1,0.8-0.2,1.6-0.2,2.6c0,1-0.1,1.9-0.1,2.8c0,1-0.1,2.1-0.1,3.1   c0,0.2,0,0.5-0.1,0.7c0,0.3-0.1,0.5-0.1,0.8c0,0.2-0.1,0.4-0.2,0.6c-0.1,0.2-0.3,0.3-0.5,0.3c-0.2,0-0.3-0.2-0.5-0.5   c-0.1-0.3-0.2-0.6-0.3-1c-0.1-0.4-0.1-0.8-0.1-1.2c0-0.4,0-0.7,0-0.8c0-0.2,0-0.4,0-0.7c0-0.3,0-0.7,0.1-1.2s0.1-1.2,0.2-2.1   c0.1-0.9,0.2-2,0.3-3.4c0,0-0.2-0.1-0.5-0.4s-0.7-0.5-1.2-0.8c-0.5-0.3-0.9-0.7-1.4-1.1s-0.9-0.8-1.2-1.1c0,0-0.1-0.2-0.2-0.3   c-0.1-0.2-0.1-0.4-0.1-0.6c0-0.1,0.1-0.2,0.2-0.4s0.3-0.2,0.4-0.2c0.1,0,0.2,0,0.3,0.1c0.6,0.5,1.2,1,1.9,1.6s1.4,1.1,2.1,1.6   c0-0.4,0.1-1.1,0.3-2c0.2-0.9,0.3-1.8,0.5-2.9c0.2-1,0.3-2,0.5-3c0.2-1,0.3-1.7,0.3-2.3c0-0.1,0-0.3,0.1-0.5c0-0.2,0.1-0.4,0.2-0.6   c0.1-0.2,0.2-0.4,0.3-0.6c0.1-0.2,0.3-0.2,0.4-0.2c0.1,0,0.2,0.1,0.5,0.2C182.2,32,182.3,32.3,182.3,32.8z"></path>
</g>
</svg>
