<svg width="500" height="500" viewBox="0 0 500 500" fill="none" xmlns="http://www.w3.org/2000/svg">
<g clip-path="url(#clip0_3_2)">
<rect width="500" height="500" rx="120" fill="#000120"/>
<g filter="url(#filter0_d_3_2)">
<path d="M297.436 294.69L302.239 303.318C308.7 314.962 315.307 326.97 323.595 342.114L342.385 376.468C356.783 402.717 362.361 412.504 365.108 415.613C379.93 432.44 400.983 425.171 413.167 405.49C421.612 391.854 425 380.721 425 367.933C425 363.195 421.443 355.199 405.956 322.205C395.611 300.168 381.406 270.513 365.785 238.273C333.916 172.555 304.466 113.257 298.803 103.659C285.288 80.7076 278.718 75.7404 257.338 75H242.529C221.149 75.7538 214.579 80.7211 201.064 103.646C188.105 125.628 80.0213 348.32 75.5203 363.585C75.1745 364.763 74.9989 365.994 75 367.233V371.971C75.0004 372.29 75.0125 372.609 75.0363 372.927C75.8349 383.683 79.38 393.658 86.7001 405.49C98.8843 425.171 119.925 432.426 134.759 415.613C137.494 412.517 143.071 402.717 157.482 376.468L176.272 342.114C184.938 326.265 193.658 310.452 202.431 294.676C222.964 257.859 238.729 230.883 249.933 213.894C261.198 231.017 276.951 257.967 297.436 294.69ZM96.4402 369.4C105.394 346.301 207.343 136.384 219.032 116.542C228.989 99.6478 229.643 99.1228 243.037 98.6382H256.83C270.224 99.1228 270.865 99.6478 280.823 116.542C285.978 125.265 315.549 184.818 346.874 249.406C360.382 277.203 373.732 305.096 386.923 333.081C392.453 344.847 396.796 354.283 399.785 361C401.285 364.379 402.435 367.045 403.185 368.902L403.282 369.091C403.378 369.239 403.572 369.306 403.572 367.92C403.572 375.754 401.576 382.296 395.465 392.15C389.96 401.035 383.971 403.108 380.474 399.136C379.579 398.113 372.561 385.81 360.728 364.218C357.038 357.514 342.337 330.632 341.95 329.891C333.252 313.988 324.5 298.121 315.694 282.292C294.798 244.842 278.766 217.408 267.139 199.787C258.742 186.716 241.113 186.716 232.643 199.922C221.101 217.421 205.057 244.842 184.173 282.305L179.333 290.974C172.86 302.672 166.23 314.72 157.917 329.905L139.139 364.231C127.294 385.796 120.288 398.113 119.381 399.136C115.872 403.108 109.907 401.048 104.402 392.163C99.1868 383.737 96.9726 377.652 96.4402 371.446V369.4Z" fill="white"/>
</g>
</g>
<defs>
<filter id="filter0_d_3_2" x="71" y="75" width="358" height="358" filterUnits="userSpaceOnUse" color-interpolation-filters="sRGB">
<feFlood flood-opacity="0" result="BackgroundImageFix"/>
<feColorMatrix in="SourceAlpha" type="matrix" values="0 0 0 0 0 0 0 0 0 0 0 0 0 0 0 0 0 0 127 0" result="hardAlpha"/>
<feOffset dy="4"/>
<feGaussianBlur stdDeviation="2"/>
<feComposite in2="hardAlpha" operator="out"/>
<feColorMatrix type="matrix" values="0 0 0 0 0 0 0 0 0 0 0 0 0 0 0 0 0 0 0.25 0"/>
<feBlend mode="normal" in2="BackgroundImageFix" result="effect1_dropShadow_3_2"/>
<feBlend mode="normal" in="SourceGraphic" in2="effect1_dropShadow_3_2" result="shape"/>
</filter>
<clipPath id="clip0_3_2">
<rect width="500" height="500" fill="white"/>
</clipPath>
</defs>
</svg>
