<svg id="svg" version="1.1" xmlns="http://www.w3.org/2000/svg" xmlns:xlink="http://www.w3.org/1999/xlink" width="500"
    height="500" viewBox="0, 0, 400,242.42424242424244">
    <g id="svgg">
        <path id="path0"
            d="M2.909 121.212 L 2.909 242.424 33.939 242.424 L 64.970 242.424 64.970 193.455 L 64.970 144.485 93.939 144.485 L 122.909 144.485 122.909 193.455 L 122.909 242.424 153.939 242.424 L 184.970 242.424 184.970 121.212 L 184.970 0.000 153.939 0.000 L 122.909 0.000 122.909 45.212 L 122.909 90.424 93.939 90.424 L 64.970 90.424 64.970 45.212 L 64.970 0.000 33.939 0.000 L 2.909 0.000 2.909 121.212 "
            stroke="none" fill="#fcfcfc" fill-rule="evenodd"></path>
        <path id="path1"
            d="M216.977 0.436 C 216.495 0.672,215.901 1.262,215.587 1.818 L 215.038 2.788 215.038 121.212 L 215.038 239.636 215.580 240.581 C 215.878 241.100,216.501 241.728,216.966 241.975 C 217.784 242.410,220.593 242.424,306.149 242.424 L 394.488 242.424 395.312 241.915 C 395.765 241.635,396.351 240.985,396.614 240.470 C 397.086 239.543,397.091 238.437,397.087 121.161 L 397.083 2.788 396.538 1.818 C 396.228 1.267,395.628 0.666,395.148 0.425 C 393.854 -0.224,218.301 -0.213,216.977 0.436 "
            stroke="none" fill="#fcfcfc" fill-rule="evenodd"></path>
    </g>
</svg>