<svg width="500" height="500" viewBox="0 0 500 500" fill="none" xmlns="http://www.w3.org/2000/svg">
<g clip-path="url(#clip0_3_2)">
<rect width="500" height="500" rx="120" fill="#242938"/>
<g clip-path="url(#clip1_3_2)">
<path d="M369.212 188.326C365.275 186.891 361.304 185.562 357.303 184.339C357.975 181.423 358.594 178.541 359.143 175.711C368.159 129.227 362.265 91.7782 342.133 79.4484C322.831 67.6282 291.264 79.9535 259.383 109.423C256.241 112.332 253.169 115.325 250.17 118.4C248.162 116.355 246.118 114.351 244.04 112.387C210.628 80.8776 177.137 67.5975 157.027 79.9627C137.742 91.8197 132.032 127.024 140.149 171.078C140.956 175.441 141.868 179.781 142.883 184.095C138.143 185.526 133.568 187.049 129.19 188.67C90.0168 203.176 65 225.91 65 249.49C65 273.844 91.8567 298.272 132.658 313.084C135.965 314.28 139.301 315.388 142.661 316.408C141.569 321.054 140.601 325.732 139.756 330.435C132.017 373.725 138.06 408.097 157.293 419.879C177.157 432.046 210.497 419.541 242.96 389.4C245.593 386.949 248.167 384.429 250.681 381.842C253.93 385.171 257.265 388.403 260.683 391.535C292.13 420.275 323.186 431.88 342.4 420.066C362.246 407.864 368.696 370.939 360.322 326.014C359.662 322.495 358.923 318.993 358.104 315.511C360.445 314.774 362.743 314.016 364.983 313.227C407.4 298.301 434.998 274.17 434.998 249.49C434.998 225.824 409.173 202.937 369.212 188.326ZM360.013 297.293C357.989 298.003 355.914 298.69 353.798 299.357C349.115 283.612 342.796 266.87 335.063 249.571C342.442 232.685 348.518 216.157 353.07 200.515C356.855 201.678 360.527 202.905 364.068 204.199C398.308 216.719 419.192 235.228 419.192 249.49C419.192 264.681 396.637 284.403 360.013 297.293ZM344.817 329.275C348.52 349.139 349.047 367.099 346.595 381.141C344.392 393.758 339.961 402.168 334.48 405.538C322.821 412.707 297.885 403.389 270.992 378.809C267.813 375.897 264.711 372.893 261.689 369.798C272.115 357.688 282.534 343.609 292.704 327.973C310.591 326.287 327.489 323.53 342.814 319.768C343.552 322.92 344.22 326.089 344.817 329.275ZM191.14 404.299C179.749 408.571 170.675 408.694 165.19 405.335C153.519 398.186 148.667 370.587 155.285 333.567C156.072 329.192 156.973 324.842 157.987 320.52C173.142 324.082 189.918 326.642 207.847 328.186C218.085 343.487 228.805 357.55 239.609 369.864C237.313 372.224 234.963 374.523 232.56 376.76C218.204 390.087 203.819 399.543 191.14 404.299ZM137.771 297.199C119.729 290.649 104.83 282.137 94.6172 272.848C85.4395 264.502 80.8073 256.214 80.8073 249.49C80.8073 235.18 100.893 216.928 134.393 204.523C138.459 203.018 142.714 201.598 147.129 200.266C151.76 216.262 157.833 232.986 165.163 249.898C157.738 267.061 151.578 284.053 146.903 300.237C143.836 299.304 140.791 298.291 137.771 297.199ZM155.661 167.853C148.708 130.109 153.326 101.638 164.947 94.4923C177.325 86.8813 204.696 97.7328 233.546 124.941C235.427 126.719 237.278 128.533 239.097 130.383C228.347 142.643 217.725 156.602 207.578 171.812C190.176 173.525 173.519 176.276 158.205 179.961C157.261 175.949 156.413 171.91 155.661 167.853ZM315.262 209.711C311.645 203.075 307.893 196.522 304.01 190.058C315.815 191.643 327.126 193.748 337.748 196.321C334.56 207.177 330.585 218.526 325.907 230.162C322.487 223.27 318.938 216.452 315.262 209.711ZM250.177 142.381C257.467 150.77 264.769 160.136 271.95 170.298C257.382 169.567 242.789 169.564 228.22 170.289C235.409 160.22 242.773 150.867 250.177 142.381ZM184.674 209.826C181.044 216.513 177.561 223.289 174.229 230.148C169.627 218.553 165.689 207.152 162.473 196.143C173.029 193.634 184.287 191.584 196.017 190.027C192.091 196.531 188.309 203.134 184.674 209.826ZM196.354 310.148C184.235 308.711 172.808 306.766 162.255 304.325C165.521 293.119 169.546 281.475 174.248 269.632C177.593 276.496 181.091 283.276 184.736 289.966C188.485 296.843 192.368 303.579 196.354 310.148ZM250.613 357.781C243.121 349.197 235.649 339.7 228.351 329.485C235.436 329.78 242.658 329.93 249.999 329.93C257.541 329.93 264.996 329.751 272.333 329.404C265.129 339.802 257.854 349.314 250.613 357.781ZM326.055 269.027C331.001 281.001 335.169 292.583 338.479 303.597C327.752 306.198 316.17 308.292 303.965 309.847C307.876 303.262 311.663 296.595 315.324 289.851C319.046 282.995 322.624 276.052 326.055 269.027ZM301.633 281.463C296.028 291.804 290.108 301.948 283.883 311.881C272.606 312.729 261.304 313.15 249.999 313.144C238.484 313.144 227.285 312.763 216.5 312.02C210.112 302.111 204.079 291.949 198.415 281.555C192.777 271.216 187.512 260.654 182.629 249.891C187.5 239.125 192.75 228.558 198.368 218.211L198.367 218.213C203.983 207.863 209.968 197.745 216.308 187.878C227.311 186.994 238.594 186.533 249.998 186.533C261.453 186.533 272.753 186.998 283.753 187.889C290.028 197.741 295.975 207.825 301.581 218.122C307.218 228.446 312.538 238.962 317.531 249.653C312.589 260.453 307.286 271.063 301.633 281.463ZM334.239 93.9918C346.628 101.581 351.447 132.186 343.662 172.321C343.165 174.882 342.607 177.49 342 180.135C326.648 176.371 309.979 173.572 292.527 171.833C282.361 156.456 271.826 142.476 261.251 130.373C264.022 127.536 266.86 124.772 269.761 122.084C297.077 96.8364 322.607 86.8675 334.239 93.9918ZM249.999 214.398C268.246 214.398 283.039 230.11 283.039 249.49C283.039 268.871 268.246 284.582 249.999 284.582C231.752 284.582 216.959 268.871 216.959 249.49C216.959 230.11 231.752 214.398 249.999 214.398Z" fill="#00D8FF"/>
</g>
</g>
<defs>
<clipPath id="clip0_3_2">
<rect width="500" height="500" fill="white"/>
</clipPath>
<clipPath id="clip1_3_2">
<rect width="370" height="350" fill="white" transform="translate(65 75)"/>
</clipPath>
</defs>
</svg>
