<svg width="500" height="500" viewBox="0 0 500 500" fill="none" xmlns="http://www.w3.org/2000/svg">
<g clip-path="url(#clip0_3_2)">
<rect width="500" height="500" rx="120" fill="#242938"/>
<g clip-path="url(#clip1_3_2)">
<path d="M368.243 250C368.243 260.772 363.856 270.522 356.752 277.573C349.648 284.632 339.836 289 328.996 289C318.155 289 308.343 293.36 301.247 300.419C294.143 307.478 289.748 317.228 289.748 328C289.748 338.772 285.36 348.522 278.256 355.573C271.152 362.632 261.34 367 250.5 367C239.66 367 229.848 362.632 222.752 355.573C215.648 348.522 211.252 338.772 211.252 328C211.252 317.228 215.648 307.478 222.752 300.419C229.848 293.36 239.66 289 250.5 289C261.34 289 271.152 284.632 278.256 277.573C285.36 270.522 289.748 260.772 289.748 250C289.748 228.456 272.18 211 250.5 211C239.66 211 229.848 206.632 222.752 199.573C215.648 192.522 211.252 182.772 211.252 172C211.252 161.228 215.648 151.478 222.752 144.419C229.848 137.36 239.66 133 250.5 133C272.18 133 289.748 150.456 289.748 172C289.748 182.772 294.143 192.522 301.247 199.573C308.343 206.632 318.155 211 328.996 211C350.676 211 368.243 228.456 368.243 250Z" fill="#F44250"/>
<path d="M211.252 250C211.252 228.46 193.681 211 172.004 211C150.329 211 132.757 228.46 132.757 250C132.757 271.539 150.329 289 172.004 289C193.681 289 211.252 271.539 211.252 250Z" fill="#121212"/>
<path d="M132.757 328C132.757 306.461 115.185 289 93.5089 289C71.833 289 54.2611 306.461 54.2611 328C54.2611 349.54 71.833 367 93.5089 367C115.185 367 132.757 349.54 132.757 328Z" fill="#121212"/>
<path d="M446.739 328C446.739 306.461 429.167 289 407.491 289C385.815 289 368.243 306.461 368.243 328C368.243 349.54 385.815 367 407.491 367C429.167 367 446.739 349.54 446.739 328Z" fill="#121212"/>
</g>
</g>
<defs>
<clipPath id="clip0_3_2">
<rect width="500" height="500" fill="white"/>
</clipPath>
<clipPath id="clip1_3_2">
<rect width="393" height="234" fill="white" transform="translate(54 133)"/>
</clipPath>
</defs>
</svg>
