<svg width="500" height="500" viewBox="0 0 500 500" fill="none" xmlns="http://www.w3.org/2000/svg">
<g clip-path="url(#clip0_3_2)">
<rect width="500" height="500" rx="120" fill="#000120"/>
<g clip-path="url(#clip1_3_2)">
<path fill-rule="evenodd" clip-rule="evenodd" d="M88.125 75H411.875C419.124 75 425 80.8763 425 88.125V411.875C425 419.124 419.124 425 411.875 425H88.125C80.8763 425 75 419.124 75 411.875V88.125C75 80.8763 80.8763 75 88.125 75ZM269.562 261.205V232.5H145V261.205H189.471V389.017H224.873V261.205H269.562ZM283.677 385.642C289.386 388.553 296.138 390.736 303.934 392.192C311.728 393.647 319.943 394.375 328.58 394.375C336.998 394.375 344.994 393.574 352.569 391.973C360.145 390.373 366.787 387.734 372.496 384.059C378.205 380.384 382.724 375.583 386.054 369.652C389.385 363.72 391.05 356.389 391.05 347.657C391.05 341.326 390.098 335.778 388.196 331.012C386.293 326.245 383.548 322.006 379.962 318.294C376.376 314.583 372.075 311.254 367.062 308.307C362.047 305.361 356.393 302.577 350.099 299.957C345.488 298.064 341.353 296.227 337.692 294.445C334.034 292.662 330.923 290.842 328.361 288.987C325.799 287.131 323.823 285.167 322.432 283.092C321.042 281.019 320.346 278.672 320.346 276.052C320.346 273.651 320.969 271.486 322.213 269.558C323.457 267.629 325.214 265.973 327.483 264.591C329.752 263.208 332.533 262.136 335.827 261.371C339.121 260.608 342.78 260.225 346.806 260.225C349.732 260.225 352.826 260.443 356.082 260.88C359.34 261.317 362.615 261.99 365.908 262.899C369.202 263.809 372.404 264.954 375.515 266.338C378.626 267.721 381.499 269.321 384.133 271.14V238.504C378.791 236.466 372.954 234.955 366.623 233.974C360.29 232.991 353.027 232.5 344.83 232.5C336.485 232.5 328.58 233.391 321.115 235.175C313.649 236.957 307.081 239.741 301.408 243.525C295.736 247.309 291.253 252.13 287.959 257.987C284.665 263.845 283.018 270.849 283.018 278.999C283.018 289.406 286.038 298.284 292.077 305.632C298.114 312.982 307.282 319.204 319.579 324.298C324.409 326.264 328.91 328.191 333.082 330.084C337.254 331.975 340.859 333.941 343.896 335.977C346.934 338.016 349.33 340.234 351.087 342.636C352.843 345.037 353.722 347.766 353.722 350.823C353.722 353.079 353.173 355.171 352.075 357.099C350.978 359.028 349.313 360.701 347.081 362.12C344.847 363.539 342.066 364.649 338.736 365.449C335.405 366.25 331.508 366.65 327.043 366.65C319.432 366.65 311.893 365.322 304.428 362.666C296.962 360.01 290.045 356.026 283.677 350.714V385.642Z" fill="white"/>
</g>
</g>
<defs>
<clipPath id="clip0_3_2">
<rect width="500" height="500" fill="white"/>
</clipPath>
<clipPath id="clip1_3_2">
<rect width="350" height="350" fill="white" transform="translate(75 75)"/>
</clipPath>
</defs>
</svg>
