<svg width="500" height="500" viewBox="0 0 500 500" fill="none" xmlns="http://www.w3.org/2000/svg">
<g clip-path="url(#clip0_3_2)">
<rect width="500" height="500" rx="120" fill="#8525B2"/>
<path d="M416.157 126.568L259.085 411.611C255.842 417.496 247.511 417.53 244.219 411.674L84.0331 126.596C80.447 120.214 85.8245 112.483 92.9508 113.776L250.19 142.299C251.193 142.481 252.22 142.479 253.223 142.294L407.175 113.817C414.277 112.503 419.68 120.174 416.157 126.568Z" fill="url(#paint0_linear_3_2)"/>
<path d="M325.092 76.364L208.855 99.4785C206.944 99.8584 205.53 101.501 205.414 103.473L198.264 226.028C198.096 228.915 200.708 231.155 203.484 230.506L235.846 222.926C238.874 222.217 241.61 224.924 240.988 228.014L231.373 275.795C230.726 279.011 233.701 281.761 236.796 280.807L256.784 274.644C259.883 273.689 262.86 276.447 262.205 279.665L246.925 354.718C245.969 359.413 252.122 361.973 254.688 357.948L256.402 355.26L351.119 163.429C352.705 160.217 349.97 156.554 346.494 157.235L313.183 163.76C310.052 164.372 307.389 161.414 308.272 158.305L330.014 81.8154C330.899 78.702 328.226 75.7409 325.092 76.364Z" fill="url(#paint1_linear_3_2)"/>
</g>
<defs>
<linearGradient id="paint0_linear_3_2" x1="80.1221" y1="103.589" x2="279.363" y2="370.215" gradientUnits="userSpaceOnUse">
<stop stop-color="#41D1FF"/>
<stop offset="1" stop-color="#BD34FE"/>
</linearGradient>
<linearGradient id="paint1_linear_3_2" x1="241.166" y1="82.6395" x2="277.564" y2="328.674" gradientUnits="userSpaceOnUse">
<stop stop-color="#FFEA83"/>
<stop offset="0.0833333" stop-color="#FFDD35"/>
<stop offset="1" stop-color="#FFA800"/>
</linearGradient>
<clipPath id="clip0_3_2">
<rect width="500" height="500" fill="white"/>
</clipPath>
</defs>
</svg>
