<svg width="500" height="500" viewBox="0 0 500 500" fill="none" xmlns="http://www.w3.org/2000/svg">
<g clip-path="url(#clip0_3_2)">
<rect width="500" height="500" rx="120" fill="#25211C"/>
<path d="M348.437 85.9375C356.44 91.471 360.57 98.6735 364.331 107.642C365.41 119.511 366.234 128.575 362.141 139.899C358.972 148.795 356.852 155.761 356.641 165.234C363.219 176.968 371.563 186.045 381.25 195.313C382.882 194.819 384.514 194.326 386.195 193.817C394.943 192.008 400.491 194.599 408.594 198.047C414.664 202.443 416.472 205.415 419.189 212.402C419.674 223.073 416.338 229.733 411.328 239.063C402.596 247.266 402.596 247.266 394.922 247.266C395.08 249.782 395.239 252.299 395.402 254.892C397.01 300.006 381.27 333.843 350.659 366.724C324.877 391.499 288.835 409.753 252.734 411.328C249.788 411.533 246.841 411.737 243.805 411.948C197.89 413.773 159.38 398.38 125.073 367.749C95.9853 336.882 85.3207 298.938 86.1083 257.391C88.2083 236.287 96.1867 218.816 106.017 200.296C111.946 189.232 111.946 189.232 112.63 176.973C111.942 174.904 111.255 172.835 110.547 170.703C108.082 149.752 112.073 133.434 124.219 116.016C133.004 108.013 139.428 106.381 151.488 106.83C163.593 108.976 173.972 117.581 181.641 126.953C181.641 128.758 181.641 130.563 181.641 132.422C183.526 131.664 185.412 130.906 187.355 130.125C203.844 123.769 218.666 119.479 236.328 118.75C239.315 118.586 239.315 118.586 242.363 118.419C258.213 117.947 272.883 120.618 288.281 124.219C288.732 121.906 289.184 119.594 289.648 117.212C300.348 92.6911 322.592 81.5894 348.437 85.9375Z" fill="#423C36"/>
<path d="M332.021 188.348C349.334 201.713 359.731 217.647 362.975 239.394C364.149 260.644 356.542 279.752 345.361 297.51C329.793 311.724 314.495 319.141 293.237 319.727C272.902 318.738 258.364 312.039 243.367 298.524C229.378 283.008 224.261 263.636 224.664 243.153C226.696 224.062 234.031 209.976 247.949 196.851C272.986 176.667 303.633 170.27 332.021 188.348Z" fill="#716257"/>
<path d="M348.437 85.9375C356.373 91.5904 360.558 98.6435 364.331 107.642C365.41 119.511 366.234 128.575 362.141 139.899C358.972 148.795 356.852 155.761 356.641 165.234C363.219 176.968 371.563 186.045 381.25 195.313C382.882 194.819 384.514 194.326 386.195 193.817C394.943 192.008 400.491 194.599 408.594 198.047C414.664 202.443 416.472 205.415 419.189 212.402C419.674 223.073 416.338 229.733 411.328 239.063C402.596 247.266 402.596 247.266 394.922 247.266C395.08 249.782 395.239 252.299 395.402 254.892C397.01 300.006 381.27 333.843 350.659 366.724C324.877 391.499 288.835 409.753 252.734 411.328C249.788 411.533 246.841 411.737 243.805 411.948C197.89 413.773 159.38 398.38 125.073 367.749C95.9853 336.882 85.3207 298.938 86.1083 257.391C88.2083 236.287 96.1867 218.816 106.017 200.296C111.946 189.232 111.946 189.232 112.63 176.973C111.942 174.904 111.255 172.835 110.547 170.703C108.082 149.752 112.073 133.434 124.219 116.016C133.003 108.014 139.435 106.358 151.498 106.851C164.043 109.031 171.653 116.296 178.906 126.27C183.998 133.403 183.998 133.403 193.262 133.276C195.743 132.994 198.225 132.712 200.781 132.422C198.977 134.227 197.172 136.031 195.312 137.891C192.605 137.891 189.898 137.891 187.109 137.891C186.207 139.695 185.305 141.5 184.375 143.359C170.703 129.688 170.703 129.687 165.747 123.535C156.444 116.093 149.805 116.016 137.891 116.016C127.219 122.938 121.878 133.963 118.75 146.094C115.892 168.232 120.919 186.013 129.687 206.25C126.98 206.25 124.273 206.25 121.484 206.25C120.131 202.189 120.131 202.189 118.75 198.047C99.3563 234.09 89.7834 265.953 101.489 306.567C114.476 344.706 133.712 360.467 168.684 379.071C204.792 396.444 249.843 397.171 288.217 386.986C325.976 373.277 354.047 342.758 375.781 310.156C377.586 310.156 379.391 310.156 381.25 310.156C383.388 295.655 385.205 281.137 386.89 266.577C387.138 264.446 387.387 262.316 387.643 260.12C388.248 254.924 388.851 249.728 389.453 244.531C386.323 244.024 386.323 244.024 383.13 243.506C375.781 241.797 375.781 241.797 367.578 236.328C368.48 238.133 369.383 239.938 370.312 241.797C373.748 266.062 367.438 284.562 353.906 304.688C336.144 324.916 317.673 330.453 291.304 332.288C274.203 331.771 260.853 325.521 247.778 314.771C245.804 312.345 243.831 309.92 241.797 307.422C240.591 305.952 239.386 304.482 238.144 302.968C220.929 280.728 220.184 255.41 222.656 228.125C225.342 219.319 228.35 213.961 233.594 206.25C235.398 205.348 237.203 204.445 239.062 203.516C235.417 214.453 231.771 225.391 228.125 236.328C225.652 260.443 232.114 280.28 247.266 299.219C264.481 314.101 278.876 316.836 301.483 316.533C318.149 314.788 331.37 308.757 342.648 296.239C356.299 276.949 361.933 257.101 359.375 233.594C355.608 216.533 346.738 204.977 334.766 192.578C336.119 189.871 336.119 189.871 337.5 187.109C349.299 198.036 358.569 207.523 364.844 222.656C368.542 215.513 371.465 208.692 373.047 200.781C369.52 192.058 369.52 192.058 362.109 184.375C360.453 182.436 358.796 180.498 357.089 178.5C352.449 173.103 347.741 167.781 342.969 162.5C345.676 161.598 348.383 160.695 351.172 159.766C351.706 151.848 352.215 143.931 352.71 136.011C352.863 133.778 353.017 131.545 353.175 129.244C353.861 117.943 354.21 107.927 351.172 96.875C341.275 93.5762 334.24 93.2583 323.828 94.1406C309.342 102.094 297.609 111.569 291.016 126.953C289.662 122.893 289.662 122.893 288.281 118.75C300.184 95.4624 321.41 78.8787 348.437 85.9375Z" fill="#14100D"/>
<path d="M157.031 107.812C166.866 112.919 172.391 117.311 178.906 126.27C183.998 133.403 183.998 133.403 193.262 133.276C195.743 132.994 198.225 132.712 200.781 132.422C198.977 134.227 197.172 136.031 195.312 137.891C192.605 137.891 189.898 137.891 187.109 137.891C186.207 139.695 185.305 141.5 184.375 143.359C170.703 129.687 170.703 129.687 165.747 123.535C156.444 116.092 149.805 116.016 137.891 116.016C127.219 122.938 121.878 133.963 118.75 146.094C115.892 168.232 120.919 186.013 129.687 206.25C126.98 206.25 124.273 206.25 121.484 206.25C120.131 202.189 120.131 202.189 118.75 198.047C99.3563 234.09 89.7834 265.952 101.489 306.567C114.476 344.706 133.712 360.467 168.684 379.071C204.792 396.444 249.843 397.171 288.217 386.986C319.853 375.5 347.943 350.558 366.884 323.08C370.385 318.259 374.203 314.255 378.516 310.156C378.516 312.863 378.516 315.57 378.516 318.359C380.32 319.262 382.125 320.164 383.984 321.094C358.581 365.339 324.08 394.526 274.609 408.594C266.881 410.139 260.49 410.99 252.734 411.328C249.788 411.533 246.841 411.737 243.805 411.948C197.89 413.773 159.38 398.38 125.073 367.749C95.9853 336.882 85.3207 298.938 86.1083 257.391C88.2083 236.287 96.1867 218.816 106.017 200.296C111.946 189.232 111.946 189.232 112.63 176.973C111.599 173.869 111.599 173.869 110.547 170.703C108.082 149.752 112.073 133.434 124.219 116.016C134.325 106.809 143.727 105.501 157.031 107.812Z" fill="#25211C"/>
<path d="M342.969 91.4063C350.275 95.8287 353.115 99.2861 355.263 107.588C357.599 123.884 358.683 144.744 351.172 159.766C341.039 161.349 335.652 159.075 327.417 153.613C294.482 131.963 258.465 127.511 219.922 132.422C213.373 132.966 206.822 133.479 200.269 133.96C197.241 134.189 194.213 134.418 191.093 134.654C188.876 134.82 186.659 134.986 184.375 135.156C198.789 119.362 222.117 119.587 242.31 118.398C258.991 117.951 274.729 120.809 291.016 124.219C292.454 121.343 292.454 121.343 293.921 118.408C306.353 99.9599 320.368 89.4579 342.969 91.4063Z" fill="#201D19"/>
<path d="M329.126 244.019C331.918 245.626 331.918 245.626 334.766 247.266C333.453 259.078 330.35 264.419 321.094 271.875C311.498 276.796 304.402 277.557 293.75 277.344C293.893 280.162 293.893 280.162 294.038 283.037C294.112 285.501 294.186 287.964 294.263 290.503C294.405 294.167 294.405 294.167 294.551 297.905C293.75 304.687 293.75 304.687 289.969 309.686C285.547 312.891 285.547 312.891 279.907 312.72C274.609 310.156 274.609 310.156 271.191 305.542C268.66 297.736 268.77 290.967 269.141 282.812C265.926 281.628 265.926 281.628 262.646 280.42C255.469 277.344 255.469 277.344 250 271.875C251.025 261.963 251.025 261.963 252.734 252.734C264.392 250.662 275.064 249.982 286.914 250.342C296.792 250.504 303.688 249.968 312.549 245.557C321.094 241.797 321.094 241.797 329.126 244.019Z" fill="#13100E"/>
<path d="M157.031 107.812C166.866 112.919 172.391 117.311 178.906 126.27C183.998 133.403 183.998 133.403 193.262 133.276C195.743 132.994 198.225 132.712 200.781 132.422C198.977 134.227 197.172 136.031 195.313 137.891C192.605 137.891 189.898 137.891 187.109 137.891C186.207 139.695 185.305 141.5 184.375 143.359C170.703 129.687 170.703 129.687 165.747 123.535C156.444 116.092 149.805 116.016 137.891 116.016C127.219 122.938 121.878 133.963 118.75 146.094C115.892 168.232 120.919 186.013 129.688 206.25C126.98 206.25 124.273 206.25 121.484 206.25C120.131 202.189 120.131 202.189 118.75 198.047C99.3563 234.09 89.7835 265.952 101.489 306.567C105.922 319.754 111.376 331.631 118.611 343.503C121.484 348.437 121.484 348.437 124.219 356.641C119.455 356.48 119.455 356.48 113.281 353.906C108.879 347.452 105.413 341.553 102.002 334.595C101.042 332.639 100.082 330.684 99.0927 328.669C84.955 298.037 81.4686 263.406 91.4063 230.859C95.8221 220.448 100.715 210.285 106.017 200.296C111.946 189.232 111.946 189.232 112.63 176.973C111.599 173.869 111.599 173.869 110.547 170.703C108.082 149.752 112.074 133.434 124.219 116.016C134.325 106.809 143.727 105.501 157.031 107.812Z" fill="#100D0A"/>
<path d="M236.328 203.516C237.231 205.32 238.133 207.125 239.063 208.984C236.937 214.635 236.937 214.635 233.765 221.46C226.383 239.274 225.249 254.062 231.543 272.388C239.272 290.422 249.126 303.379 266.406 312.891C285.263 319.084 306.779 318.296 324.854 310.327C339.076 302.347 346.153 291.332 353.906 277.344C357.552 271.875 361.198 266.406 364.844 260.938C365.921 254.583 366.853 248.201 367.578 241.797C368.481 241.797 369.383 241.797 370.313 241.797C372.928 266.401 367.709 284.158 353.906 304.688C336.144 324.916 317.673 330.453 291.304 332.288C274.203 331.771 260.853 325.521 247.778 314.771C245.805 312.345 243.831 309.92 241.797 307.422C240.591 305.952 239.386 304.482 238.144 302.968C220.94 280.742 220.156 255.398 222.656 228.125C225.607 218.846 229.3 210.544 236.328 203.516Z" fill="#26231F"/>
<path d="M375.781 310.156C377.135 314.217 377.135 314.217 378.516 318.359C380.32 319.262 382.125 320.164 383.984 321.094C359.929 362.992 328.213 391.089 282.097 406.639C264.792 411.157 248.327 412.695 230.859 408.594C241.14 402.42 252.21 400.734 263.843 398.682C266.796 398.132 266.796 398.132 269.808 397.571C277.904 396.097 285.504 394.922 293.75 394.922C293.75 393.117 293.75 391.313 293.75 389.453C291.043 388.551 288.336 387.648 285.547 386.719C288.479 385.873 291.412 385.027 294.434 384.155C329.375 371.06 356.621 341.108 375.781 310.156Z" fill="#26211B"/>
<path d="M177.881 251.196C187.109 252.734 187.109 252.734 192.065 256.152C193.137 257.731 194.208 259.311 195.312 260.938C197.004 263.391 197.004 263.391 198.73 265.894C201.638 274.375 200.587 279.755 198.047 288.281C193.111 294.205 189.487 296.089 181.908 297.35C172.109 297.915 166.758 297.475 158.398 292.041C152.944 283.405 152.485 279.206 154.297 269.141C161.248 257.766 164.505 253.272 177.881 251.196Z" fill="#AA7F69"/>
<path d="M152.962 137.88C161.136 141.178 164.671 144.915 170.19 151.733C171.844 153.739 173.497 155.745 175.2 157.811C176.423 159.358 177.646 160.906 178.906 162.5C176.199 166.561 176.199 166.561 173.438 170.703C171.633 170.703 169.828 170.703 167.969 170.703C167.066 173.41 166.164 176.117 165.234 178.906C163.43 178.906 161.625 178.906 159.766 178.906C159.766 181.613 159.766 184.32 159.766 187.109C157.961 187.109 156.156 187.109 154.297 187.109C152.492 189.816 150.688 192.523 148.828 195.312C146.121 196.215 143.414 197.117 140.625 198.047C135.574 187.237 134.269 178.332 134.131 166.431C134.053 163.382 133.976 160.333 133.896 157.191C135.156 148.828 135.156 148.828 139.835 142.088C146.094 137.891 146.094 137.891 152.962 137.88Z" fill="#C8806B"/>
<path d="M403.125 200.781C408.081 203.857 408.081 203.857 411.328 208.984C411.841 219.067 411.841 219.067 411.328 228.125C409.523 228.125 407.719 228.125 405.859 228.125C405.013 229.873 404.167 231.622 403.296 233.423C400.391 239.063 400.391 239.063 397.656 241.797C389.694 242.658 385.041 242.325 377.832 238.721C371.104 231.512 370.312 227.01 370.312 217.188C378.677 201.354 385.422 195.47 403.125 200.781Z" fill="#B87866"/>
<path d="M280.025 254.561C285.519 254.609 291.008 255.02 296.484 255.469C294.434 260.767 294.434 260.767 291.016 266.406C285.376 268.115 285.376 268.115 280.078 269.141C279.176 270.945 278.273 272.75 277.344 274.609C279.882 275.202 279.882 275.202 282.471 275.806C288.281 277.344 288.281 277.344 293.75 280.078C293.972 284.006 294.131 287.938 294.263 291.87C294.405 295.153 294.405 295.153 294.551 298.503C293.75 304.688 293.75 304.688 289.969 309.601C285.547 312.891 285.547 312.891 279.907 312.72C274.609 310.156 274.609 310.156 271.191 305.542C268.66 297.736 268.77 290.967 269.141 282.812C266.998 282.079 264.854 281.346 262.646 280.591C255.469 277.344 255.469 277.344 250 269.141C251.805 266.434 253.609 263.727 255.469 260.938C258.176 260.938 260.883 260.938 263.672 260.938C264.574 263.645 265.477 266.352 266.406 269.141C267.309 266.885 268.211 264.629 269.141 262.305C274.609 255.469 274.609 255.469 280.025 254.561Z" fill="#3C291E"/>
<path d="M331.177 106.274C337.5 107.812 337.5 107.812 342.456 111.914C346.952 121.379 347.167 130.415 345.703 140.625C343.898 145.137 342.094 149.648 340.234 154.297C327.602 147.98 314.969 141.664 301.953 135.156C307.963 120.131 314.543 109.756 331.177 106.274Z" fill="#C07A67"/>
<path d="M301.953 203.516C303.758 204.418 305.562 205.32 307.422 206.25C306.909 212.744 306.909 212.744 304.688 219.922C297.681 223.511 297.681 223.511 291.016 225.391C291.918 233.512 292.82 241.633 293.75 250C295.565 249.013 297.381 248.026 299.251 247.009C301.665 245.74 304.08 244.471 306.567 243.164C308.947 241.895 311.326 240.626 313.777 239.319C321.416 236.196 326.607 235.74 334.766 236.328C335.668 240.84 336.57 245.352 337.5 250C335.188 248.928 332.875 247.857 330.493 246.753C318.293 243.869 313.031 247.401 301.953 252.734C298.344 252.734 294.734 252.734 291.016 252.734C290.113 243.711 289.211 234.687 288.281 225.391C285.687 225.447 283.093 225.503 280.42 225.562C271.875 225.391 271.875 225.391 266.406 222.656C267.237 214.624 268.612 212.154 274.951 206.934C284.528 202.77 291.606 202.735 301.953 203.516Z" fill="#352920"/>
<path d="M348.438 167.969C371.361 190.256 371.361 190.256 375.781 203.516C373.958 207.161 372.135 210.807 370.312 214.453C369.253 220.81 368.317 227.191 367.578 233.594C366.813 232.018 366.048 230.443 365.26 228.819C362.222 222.877 358.954 217.223 355.444 211.548C354.32 209.711 353.196 207.875 352.037 205.983C348.6 200.661 348.6 200.661 343.962 196.423C340.234 192.578 340.234 192.578 339.209 185.913C340.4 177.777 343.036 174.045 348.438 167.969Z" fill="#3F3934"/>
<path d="M332.031 375.781C329.297 383.984 329.297 383.984 321.233 388.78C317.839 390.457 314.431 392.104 311.011 393.726C308.497 394.971 308.497 394.971 305.932 396.241C290.634 403.687 276.387 409 259.399 410.474C256.914 410.71 254.429 410.946 251.869 411.189C244.427 411.33 238.077 410.33 230.859 408.594C240.857 402.595 251.328 401.184 262.646 399.365C284.725 395.524 312.196 375.781 332.031 375.781Z" fill="#14110F"/>
<path d="M367.578 241.797C368.48 241.797 369.383 241.797 370.312 241.797C373.174 268.712 365.679 287.923 350.253 309.889C346.899 313.745 346.899 313.745 340.234 318.359C332.544 317.847 332.544 317.847 326.562 315.625C328.536 314.159 330.51 312.692 332.544 311.182C344.504 301.082 352.849 293.323 356.128 277.686C356.297 274.866 356.466 272.046 356.641 269.141C358.445 269.141 360.25 269.141 362.109 269.141C363.914 260.117 365.719 251.094 367.578 241.797Z" fill="#2A2824"/>
<path d="M189.844 255.469C196.635 263.441 200.265 269.494 200.781 280.078C198.047 287.598 198.047 287.598 192.578 293.75C182.495 295.972 182.495 295.972 173.438 296.484C174.34 288.363 175.242 280.242 176.172 271.875C179.781 270.973 183.391 270.07 187.109 269.141C187.109 271.848 187.109 274.555 187.109 277.344C188.914 278.246 190.719 279.148 192.578 280.078C192.152 278.531 191.725 276.983 191.286 275.389C190.487 272.381 190.487 272.381 189.673 269.312C188.864 266.314 188.864 266.314 188.039 263.255C187.732 261.588 187.425 259.921 187.109 258.203C188.012 257.301 188.914 256.398 189.844 255.469Z" fill="#9B6958"/>
<path d="M342.969 91.4063C349.634 95.6787 349.634 95.6787 353.906 102.344C354.59 112.598 354.59 112.598 353.906 121.484C351.199 119.68 348.492 117.875 345.703 116.016C345.703 113.309 345.703 110.602 345.703 107.813C340.863 106.892 336.02 105.983 331.177 105.078C328.48 104.571 325.784 104.063 323.006 103.54C315.522 102.125 315.522 102.125 307.422 102.344C319.59 92.8469 327.463 89.1091 342.969 91.4063Z" fill="#595249"/>
<path d="M403.125 200.781C404.027 202.586 404.93 204.391 405.859 206.25C402.25 205.348 398.641 204.445 394.922 203.516C396.727 207.125 398.531 210.734 400.391 214.453C398.586 216.258 396.781 218.063 394.922 219.922C393.117 219.02 391.313 218.117 389.453 217.188C390.355 213.578 391.258 209.969 392.188 206.25C390.383 206.25 388.578 206.25 386.719 206.25C384.914 214.371 383.109 222.492 381.25 230.859C378.543 230.859 375.836 230.859 373.047 230.859C370.996 225.049 370.996 225.049 370.312 217.188C378.848 201.336 385.288 195.618 403.125 200.781Z" fill="#BB8C78"/>
<path d="M124.219 353.906C126.926 355.711 129.633 357.516 132.422 359.375C132.422 361.18 132.422 362.984 132.422 364.844C133.98 365.58 135.538 366.317 137.143 367.076C143.575 370.425 149.354 374.23 155.322 378.345C164.755 384.722 174.046 390.155 184.375 394.922C184.375 395.824 184.375 396.727 184.375 397.656C164.637 399.076 153.214 389.986 137.891 378.516C131.11 372.46 124.795 366.163 118.75 359.375C120.555 357.57 122.359 355.766 124.219 353.906Z" fill="#1B1713"/>
<path d="M170.703 154.297C173.41 157.004 176.117 159.711 178.906 162.5C176.199 166.561 176.199 166.561 173.438 170.703C171.633 170.703 169.828 170.703 167.969 170.703C167.066 173.41 166.164 176.117 165.234 178.906C163.43 178.906 161.625 178.906 159.766 178.906C159.766 181.613 159.766 184.32 159.766 187.109C157.961 187.109 156.156 187.109 154.297 187.109C151.59 191.17 151.59 191.17 148.828 195.312C146.121 196.215 143.414 197.117 140.625 198.047C138.724 193.166 138.724 193.166 137.891 187.109C141.33 182.335 141.33 182.335 146.436 177.71C148.194 176.074 149.953 174.439 151.765 172.754C154.372 170.385 154.372 170.385 157.031 167.969C159.725 165.308 162.405 162.633 165.063 159.937C166.925 158.075 168.786 156.214 170.703 154.297Z" fill="#A1664F"/>
<path d="M353.906 110.547C354.809 110.547 355.711 110.547 356.641 110.547C356.256 117.726 355.855 124.903 355.444 132.08C355.337 134.121 355.229 136.162 355.119 138.264C354.216 153.677 354.216 153.677 351.172 159.766C348.465 159.766 345.758 159.766 342.969 159.766C339.515 149.96 340.99 143.488 343.823 133.618C344.546 131.02 345.268 128.423 346.013 125.746C348.438 118.75 348.438 118.75 353.906 110.547Z" fill="#3B342B"/>
<path d="M316.138 253.76C317.773 254.324 319.409 254.888 321.094 255.469C321.996 259.98 322.898 264.492 323.828 269.141C308.447 277.344 308.447 277.344 299.219 277.344C300.073 268.115 300.073 268.115 301.953 258.203C310.156 252.734 310.156 252.734 316.138 253.76Z" fill="#1C1915"/>
<path d="M304.688 124.219C317.933 129.904 330.818 135.52 342.969 143.359C341.164 146.969 339.359 150.578 337.5 154.297C335.621 153.144 333.743 151.992 331.807 150.804C329.343 149.306 326.879 147.808 324.341 146.265C321.898 144.774 319.455 143.283 316.939 141.747C310.137 137.59 310.137 137.59 301.953 135.156C302.855 131.547 303.758 127.938 304.688 124.219Z" fill="#9F654F"/>
<path d="M274.609 277.344C279.121 277.344 283.633 277.344 288.281 277.344C288.281 287.27 288.281 297.195 288.281 307.422C284.672 307.422 281.063 307.422 277.344 307.422C274.055 300.844 274.334 296.621 274.438 289.307C274.463 287.072 274.488 284.837 274.513 282.535C274.545 280.822 274.577 279.109 274.609 277.344Z" fill="#C34627"/>
<path d="M299.219 206.25C299.219 209.859 299.219 213.469 299.219 217.188C293.75 222.656 293.75 222.656 283.838 222.998C280.792 222.885 277.747 222.772 274.609 222.656C274.609 219.047 274.609 215.438 274.609 211.719C283.182 206.639 289.306 205.699 299.219 206.25Z" fill="#DD7342"/>
<path d="M178.906 258.203C178.906 260.91 178.906 263.617 178.906 266.406C177.102 266.406 175.297 266.406 173.438 266.406C173.438 271.82 173.438 277.234 173.438 282.812C169.828 283.715 166.219 284.617 162.5 285.547C163.402 281.937 164.305 278.328 165.234 274.609C162.527 275.963 162.527 275.963 159.766 277.344C158.863 280.051 157.961 282.758 157.031 285.547C156.129 285.547 155.227 285.547 154.297 285.547C153.442 278.027 153.442 278.027 154.297 269.141C162.987 259.968 166.042 258.203 178.906 258.203Z" fill="#8F6653"/>
<path d="M189.844 397.656C206.988 399.461 224.133 401.266 241.797 403.125C242.699 405.832 243.602 408.539 244.531 411.328C209.466 412.883 209.466 412.883 192.578 403.125C191.676 401.32 190.773 399.516 189.844 397.656Z" fill="#1C1915"/>
<path d="M373.047 326.562C373.949 329.27 374.852 331.977 375.781 334.766C367.72 349.476 355.014 361.575 342.969 373.047C340.262 372.145 337.555 371.242 334.766 370.312C337.473 369.41 340.18 368.508 342.969 367.578C344.893 363.985 346.702 360.329 348.438 356.641C351.523 352.85 354.719 349.148 358.008 345.532C363.636 339.32 368.375 333.571 373.047 326.562Z" fill="#100B08"/>
<path d="M351.172 282.812C352.977 282.812 354.781 282.812 356.641 282.812C352.058 300.123 338.476 308.997 323.828 317.847C314.683 321.467 306.246 322.852 296.484 323.828C296.484 322.023 296.484 320.219 296.484 318.359C298.236 317.926 299.988 317.492 301.793 317.046C321.011 311.862 336.827 306.015 347.925 288.794C348.996 286.82 350.068 284.846 351.172 282.812Z" fill="#161310"/>
<path d="M173.438 269.141C176.514 273.584 176.514 273.584 178.906 280.078C176.514 288.965 176.514 288.965 173.438 296.484C167.507 295.101 162.501 293.75 157.031 291.016C157.031 285.602 157.031 280.187 157.031 274.609C159.738 274.609 162.445 274.609 165.234 274.609C166.137 277.316 167.039 280.023 167.969 282.812C169.773 278.301 171.578 273.789 173.438 269.141Z" fill="#BB7865"/>
<path d="M228.125 121.484C228.125 123.289 228.125 125.094 228.125 126.953C218.496 133.373 213.065 133.452 201.636 134.131C198.411 134.335 195.185 134.54 191.862 134.75C188.156 134.951 188.156 134.951 184.375 135.156C196.138 122.185 211.204 120.659 228.125 121.484Z" fill="#272420"/>
<path d="M340.234 105.078C342.039 105.98 343.844 106.883 345.703 107.813C347.412 116.187 347.412 116.187 348.438 124.219C347.028 121.907 345.618 119.594 344.165 117.212C337.982 109.517 337.982 109.517 328.271 110.205C316.365 113.9 310.9 118.443 301.953 126.953C304.619 117.356 307.291 113.395 314.941 106.787C325.222 101.647 329.392 101.875 340.234 105.078Z" fill="#211A14"/>
<path d="M118.75 181.641C122.914 189.672 126.409 197.82 129.688 206.25C126.98 206.25 124.273 206.25 121.484 206.25C120.582 203.543 119.68 200.836 118.75 198.047C116.043 203.461 113.336 208.875 110.547 214.453C107.3 210.01 107.3 210.01 105.078 203.516C108.838 194.629 108.838 194.629 113.281 187.109C115.086 187.109 116.891 187.109 118.75 187.109C118.75 185.305 118.75 183.5 118.75 181.641Z" fill="#1A1714"/>
<path d="M334.766 236.328C335.668 240.84 336.57 245.352 337.5 250C335.188 248.928 332.875 247.857 330.493 246.753C318.293 243.869 313.031 247.401 301.953 252.734C298.344 252.734 294.734 252.734 291.016 252.734C291.016 248.223 291.016 243.711 291.016 239.062C291.918 242.672 292.82 246.281 293.75 250C295.565 249.013 297.381 248.026 299.251 247.009C302.873 245.106 302.873 245.106 306.567 243.164C308.947 241.895 311.326 240.626 313.777 239.319C321.416 236.196 326.607 235.74 334.766 236.328Z" fill="#25201C"/>
<path d="M189.844 255.469C196.635 263.441 200.265 269.494 200.781 280.078C196.851 287.769 196.851 287.769 192.578 293.75C187.109 285.547 187.109 285.547 187.109 280.078C188.914 280.078 190.719 280.078 192.578 280.078C192.152 278.531 191.725 276.983 191.286 275.389C190.753 273.383 190.221 271.378 189.673 269.312C188.864 266.314 188.864 266.314 188.039 263.255C187.732 261.588 187.425 259.921 187.109 258.203C188.012 257.301 188.914 256.398 189.844 255.469Z" fill="#936352"/>
<path d="M323.828 102.344C320.698 104.712 320.698 104.712 317.505 107.129C310.122 112.798 310.122 112.798 305.713 119.434C303.852 121.802 303.852 121.802 301.953 124.219C299.246 124.219 296.539 124.219 293.75 124.219C295.297 115.245 297.613 110.843 304.688 105.078C314.198 99.1338 314.198 99.1338 323.828 102.344Z" fill="#3F3A34"/>
<path d="M170.703 154.297C173.41 157.004 176.117 159.711 178.906 162.5C176.199 166.561 176.199 166.561 173.438 170.703C171.633 170.703 169.828 170.703 167.969 170.703C167.066 173.41 166.164 176.117 165.234 178.906C159.82 178.906 154.406 178.906 148.828 178.906C151.958 175.861 151.958 175.861 155.151 172.754C160.967 166.803 165.934 161.074 170.703 154.297Z" fill="#AC6B54"/>
<path d="M288.281 176.172C282.599 181.854 279.643 183.091 272.217 185.571C263.544 188.651 257.201 192.231 250 198.047C248.195 198.047 246.391 198.047 244.531 198.047C247.266 189.844 247.266 189.844 253.033 186.052C255.416 184.878 257.799 183.704 260.254 182.495C262.608 181.3 264.963 180.105 267.389 178.874C274.911 176.059 280.326 175.642 288.281 176.172Z" fill="#302C27"/>
<path d="M91.4062 252.734C92.3086 252.734 93.2109 252.734 94.1406 252.734C94.1406 266.27 94.1406 279.805 94.1406 293.75C91.4336 295.104 91.4336 295.104 88.6719 296.484C88.0598 291.761 87.5004 287.032 86.9629 282.3C86.6456 279.667 86.3284 277.034 86.0016 274.321C85.9321 265.748 87.7323 260.405 91.4062 252.734Z" fill="#0A0703"/>
<path d="M386.719 206.25C388.523 206.25 390.328 206.25 392.188 206.25C390.383 215.273 388.578 224.297 386.719 233.594C388.523 234.496 390.328 235.398 392.188 236.328C392.188 238.133 392.188 239.937 392.188 241.797C383.247 240.255 378.992 237.696 373.047 230.859C375.754 230.859 378.461 230.859 381.25 230.859C383.055 222.738 384.859 214.617 386.719 206.25Z" fill="#9F6A57"/>
<path d="M195.312 211.719C196.215 217.133 197.117 222.547 198.047 228.125C194.437 229.027 190.828 229.93 187.109 230.859C186.207 225.445 185.305 220.031 184.375 214.453C189.844 211.719 189.844 211.719 195.312 211.719Z" fill="#0E0C0A"/>
<path d="M375.781 208.984C376.684 210.789 377.586 212.594 378.516 214.453C380.32 214.453 382.125 214.453 383.984 214.453C383.082 219.867 382.18 225.281 381.25 230.859C378.543 230.859 375.836 230.859 373.047 230.859C371.338 224.536 371.338 224.536 370.312 217.188C372.117 214.48 373.922 211.773 375.781 208.984Z" fill="#B8826C"/>
<path d="M252.734 192.578C254.539 192.578 256.344 192.578 258.203 192.578C254.689 200.418 251.172 206.185 244.531 211.719C242.727 211.719 240.922 211.719 239.062 211.719C238.16 214.426 237.258 217.133 236.328 219.922C235.426 218.117 234.523 216.313 233.594 214.453C236.651 210.791 239.731 207.149 242.822 203.516C245.392 200.47 245.392 200.47 248.013 197.363C249.571 195.784 251.129 194.205 252.734 192.578Z" fill="#9F9483"/>
<path d="M254.785 402.783C256.971 402.833 259.156 402.882 261.407 402.933C263.057 402.996 264.707 403.06 266.406 403.125C259.235 410.296 254.511 410.35 244.531 411.328C236.67 410.132 236.67 410.132 230.859 408.594C239.233 403.715 245.135 402.499 254.785 402.783Z" fill="#0C0A08"/>
<path d="M321.094 255.469C321.996 259.98 322.898 264.492 323.828 269.141C321.121 270.494 321.121 270.494 318.359 271.875C316.555 268.266 314.75 264.656 312.891 260.938C307.477 263.645 307.477 263.645 301.953 266.406C302.979 261.108 302.979 261.108 304.688 255.469C311.499 252.063 314.014 253.345 321.094 255.469Z" fill="#25221D"/>
<path d="M121.484 118.75C123.289 121.457 125.094 124.164 126.953 126.953C123.706 136.865 123.706 136.865 118.75 146.094C116.043 146.996 113.336 147.898 110.547 148.828C111.852 144.839 113.163 140.852 114.478 136.865C115.207 134.645 115.937 132.424 116.689 130.136C118.75 124.219 118.75 124.219 121.484 118.75Z" fill="#191613"/>
<path d="M332.031 250C332.934 252.707 333.836 255.414 334.766 258.203C331.006 262.305 331.006 262.305 326.562 266.406C324.758 266.406 322.953 266.406 321.094 266.406C320.191 262.797 319.289 259.188 318.359 255.469C326.562 250 326.562 250 332.031 250Z" fill="#161310"/>
<path d="M157.031 274.609C159.738 274.609 162.445 274.609 165.234 274.609C166.137 281.828 167.039 289.047 167.969 296.484C164.359 294.68 160.75 292.875 157.031 291.016C157.031 285.602 157.031 280.187 157.031 274.609Z" fill="#AB705B"/>
<path d="M274.609 255.469C281.828 255.469 289.047 255.469 296.484 255.469C295.582 258.176 294.68 260.883 293.75 263.672C288.336 263.672 282.922 263.672 277.344 263.672C276.441 260.965 275.539 258.258 274.609 255.469Z" fill="#221E1A"/>
<path d="M345.703 173.438C347.508 173.438 349.312 173.438 351.172 173.438C352.074 177.949 352.977 182.461 353.906 187.109C350.297 187.109 346.688 187.109 342.969 187.109C343.871 182.598 344.773 178.086 345.703 173.438Z" fill="#0B0908"/>
<path d="M140.625 373.047C149.854 376.289 156.067 379.27 162.5 386.719C146.777 384.326 146.777 384.326 140.625 381.25C140.625 378.543 140.625 375.836 140.625 373.047Z" fill="#12110F"/>
<path d="M189.844 255.469C196.688 263.503 199.33 269.63 200.781 280.078C199.879 278.273 198.977 276.469 198.047 274.609C195.34 273.707 192.633 272.805 189.844 271.875C188.799 267.346 187.892 262.784 187.109 258.203C188.012 257.301 188.914 256.398 189.844 255.469Z" fill="#835C49"/>
<path d="M146.094 132.422C153.955 133.276 153.955 133.276 162.5 135.156C164.305 137.863 166.109 140.57 167.969 143.359C155.787 140.652 155.787 140.652 143.359 137.891C144.262 136.086 145.164 134.281 146.094 132.422Z" fill="#201A14"/>
<path d="M364.844 356.641C366.648 357.543 368.453 358.445 370.312 359.375C367.605 361.18 364.898 362.984 362.109 364.844C363.012 362.137 363.914 359.43 364.844 356.641Z" fill="#F56D2B"/>
<path d="M321.094 392.188C322.898 393.09 324.703 393.992 326.562 394.922C323.855 394.922 321.148 394.922 318.359 394.922C319.262 394.02 320.164 393.117 321.094 392.188Z" fill="#EA632A"/>
<path d="M400.391 321.094C402.195 322.898 404 324.703 405.859 326.562C404.055 326.562 402.25 326.562 400.391 326.562C400.391 324.758 400.391 322.953 400.391 321.094Z" fill="#F46C2C"/>
<path d="M405.859 301.953C408.566 303.307 408.566 303.307 411.328 304.688C408.621 306.041 408.621 306.041 405.859 307.422C405.859 305.617 405.859 303.813 405.859 301.953Z" fill="#CF6632"/>
</g>
<defs>
<clipPath id="clip0_3_2">
<rect width="500" height="500" fill="white"/>
</clipPath>
</defs>
</svg>
